<svg width="30" height="30" viewBox="0 0 30 30" fill="none" xmlns="http://www.w3.org/2000/svg">
<path d="M13.55 5.53295C13.9558 5.19098 14.4693 5.00342 15 5.00342C15.5307 5.00342 16.0442 5.19098 16.45 5.53295L23.2 11.228C23.708 11.655 24 12.284 24 12.948V22.75C24 23.2141 23.8156 23.6592 23.4874 23.9874C23.1592 24.3156 22.7141 24.5 22.25 24.5H19.25C18.7859 24.5 18.3408 24.3156 18.0126 23.9874C17.6844 23.6592 17.5 23.2141 17.5 22.75V17.75C17.5 17.551 17.421 17.3603 17.2803 17.2196C17.1397 17.079 16.9489 17 16.75 17H13.25C13.0511 17 12.8603 17.079 12.7197 17.2196C12.579 17.3603 12.5 17.551 12.5 17.75V22.75C12.5 23.2141 12.3156 23.6592 11.9874 23.9874C11.6592 24.3156 11.2141 24.5 10.75 24.5H7.75C7.52019 24.5 7.29262 24.4547 7.0803 24.3667C6.86798 24.2788 6.67507 24.1499 6.51256 23.9874C6.35006 23.8249 6.22116 23.632 6.13321 23.4196C6.04527 23.2073 6 22.9798 6 22.75V12.947C6 12.284 6.292 11.655 6.8 11.227L13.55 5.53295Z" fill="#BFF205"/>
</svg>
